<?xml version="1.0" encoding="UTF-8"?>
<svg width="20px" height="20px" viewBox="0 0 20 20" version="1.1" xmlns="http://www.w3.org/2000/svg" xmlns:xlink="http://www.w3.org/1999/xlink">
    <!-- Generator: Sketch 58 (84663) - https://sketch.com -->
    <title>25436@2x</title>
    <desc>Created with Sketch.</desc>
    <g id="Page-1" stroke="none" stroke-width="1" fill="none" fill-rule="evenodd">
        <g id="attachment_uploaded" transform="translate(-144.000000, -716.000000)" fill="#000000" fill-rule="nonzero">
            <g id="25436" transform="translate(144.000000, 715.403846)">
                <path d="M19.6875836,5.19434745 C19.4791497,4.98610981 19.2263083,4.88189326 18.9288248,4.88189326 L14.2856975,4.88189326 C13.8393941,4.88189326 13.3630295,5.03067353 12.8572294,5.32831223 L12.8572294,1.66771575 C12.8572294,1.36999885 12.7531688,1.11684568 12.5447349,0.908686218 C12.336301,0.700370395 12.0834595,0.596153846 11.7856633,0.596153846 L7.14292693,0.596153846 C6.84528706,0.596153846 6.51785975,0.670543978 6.16076226,0.819285151 C5.80362569,0.968065415 5.52091863,1.14671119 5.31248472,1.3550661 L0.758915219,5.9086569 C0.550559491,6.11697272 0.371913021,6.39975686 0.223132176,6.75685295 C0.0743904225,7.1141054 0,7.44129689 0,7.73905287 L0,15.2389698 C0,15.5367649 0.104099682,15.789879 0.31241632,15.9979993 C0.520772049,16.2064324 0.77380894,16.3104926 1.07133154,16.3104926 L7.14288784,16.3104926 L7.14288784,19.5249047 C7.14288784,19.822387 7.24694843,20.0755011 7.45530416,20.2836606 C7.66354262,20.4920937 7.91657951,20.5961538 8.21421938,20.5961538 L18.9287466,20.5961538 C19.2262301,20.5961538 19.4793452,20.4920937 19.6875055,20.2836606 C19.8959394,20.0755011 20,19.822387 20,19.5249047 L20,5.95341607 C20,5.65577736 19.8960175,5.40270237 19.6875836,5.19434745 Z M12.8572294,7.25917202 L12.8572294,10.5961343 L9.52017589,10.5961343 L12.8572294,7.25917202 Z M5.71426336,2.97339351 L5.71426336,6.31035579 L2.37728805,6.31035579 L5.71426336,2.97339351 Z M7.90184215,10.1943572 C7.69348642,10.4027121 7.51483995,10.6854963 7.36605911,11.0426705 C7.21731736,11.4000012 7.14292693,11.7270754 7.14292693,12.0248705 L7.14292693,14.8817564 L1.42866357,14.8817564 L1.42866357,7.73905287 L6.07136085,7.73905287 C6.3690789,7.73905287 6.62203761,7.63491451 6.83039334,7.42655959 C7.03863179,7.21820468 7.14288784,6.96524696 7.14288784,6.66772552 L7.14288784,2.02481183 L11.4287222,2.02481183 L11.4287222,6.66768643 L7.90184215,10.1943572 Z M18.5713364,19.1676913 L8.57123868,19.1676913 L8.57123868,12.0245968 L13.2142878,12.0245968 C13.5119277,12.0245968 13.7647691,11.9205366 13.9730466,11.7121036 C14.1813242,11.5039441 14.2855411,11.2509473 14.2855411,10.9533477 L14.2855411,6.31039489 L18.5710627,6.31039489 L18.5710627,19.1676913 L18.5713364,19.1676913 Z" id="Shape"></path>
            </g>
        </g>
    </g>
</svg>