<svg xmlns="http://www.w3.org/2000/svg" width="90" height="93" viewBox="0 0 90 93">
    <path fill="#ECECEC" fill-rule="evenodd" d="M5.143 87.833V93H0v-5.167h5.143zm28.286 0V93h-5.143v-5.167h5.143zm28.285 0V93h-5.143v-5.167h5.143zm28.286 0V93h-5.143v-5.167H90zm-84.857-31V62H0v-5.167h5.143zm28.286 0V62h-5.143v-5.167h5.143zm28.285 0V62h-5.143v-5.167h5.143zm28.286 0V62h-5.143v-5.167H90zM5.143 28.417v5.166H0v-5.166h5.143zm28.286 0v5.166h-5.143v-5.166h5.143zm28.285 0v5.166h-5.143v-5.166h5.143zm28.286 0v5.166h-5.143v-5.166H90zM5.143 0v5.167H0V0h5.143zm28.286 0v5.167h-5.143V0h5.143zm28.285 0v5.167h-5.143V0h5.143zM90 0v5.167h-5.143V0H90z" opacity=".898"/>
</svg>
