<svg xmlns="http://www.w3.org/2000/svg" width="41" height="38" viewBox="0 0 41 38">
    <g fill="#000" fill-rule="evenodd">
        <path d="M26.304 10.71a.99.99 0 0 0 1.405 0 .993.993 0 0 0 0-1.406l-.013-.013a.993.993 0 0 0-1.405 1.405l.013.013z"/>
        <path fill-rule="nonzero" d="M37.974 17.55l2.791-2.805a.808.808 0 0 0 .174-.878.8.8 0 0 0-.74-.497h-5.786a17.513 17.513 0 0 0-4.612-8.23C26.504 1.827 22.12 0 17.457 0 12.794 0 8.41 1.826 5.113 5.14A17.483 17.483 0 0 0 0 17.55c0 4.689 1.816 9.096 5.113 12.411.98.986 2.058 1.839 3.21 2.552L5.91 36.798a.809.809 0 0 0 .005.802.8.8 0 0 0 .691.4h4.124a.8.8 0 0 0 .697-.408l1.706-3.03a17.48 17.48 0 0 0 4.324.54 17.48 17.48 0 0 0 4.324-.54l1.706 3.03a.8.8 0 0 0 .697.408h4.124a.8.8 0 0 0 .691-.4.809.809 0 0 0 .006-.802l-2.413-4.285a17.6 17.6 0 0 0 3.209-2.552 17.516 17.516 0 0 0 4.612-8.23H40.2a.8.8 0 0 0 .74-.497.808.808 0 0 0-.174-.877l-2.79-2.806zm-1.464-.804h-5.589l1.756-1.765h5.589l-1.756 1.765zM10.264 36.39H7.98l1.743-3.096c.598.298 1.212.561 1.84.787l-1.3 2.309zm16.67 0h-2.283l-1.3-2.309c.628-.226 1.242-.49 1.84-.787l1.743 3.096zm1.734-7.567a15.935 15.935 0 0 1-3.51 2.67c-.016.007-.032.014-.048.023l-.027.018c-.976.54-2.004.973-3.07 1.293a.79.79 0 0 0-.125.036c-1.422.413-2.91.629-4.431.629s-3.01-.216-4.43-.63a.792.792 0 0 0-.125-.035 15.601 15.601 0 0 1-3.07-1.293l-.028-.018c-.016-.009-.032-.016-.047-.023a15.933 15.933 0 0 1-3.511-2.67A15.88 15.88 0 0 1 1.602 17.55 15.88 15.88 0 0 1 6.246 6.279 15.71 15.71 0 0 1 17.457 1.61a15.71 15.71 0 0 1 11.211 4.67 15.905 15.905 0 0 1 4.092 7.09h-.414a.799.799 0 0 0-.567.236l-2.125 2.137a12.45 12.45 0 0 0-1.396-4.181.799.799 0 0 0-1.088-.316.807.807 0 0 0-.314 1.094 10.734 10.734 0 0 1 1.294 4.406h-3.531a7.205 7.205 0 0 0-2.066-4.319 7.14 7.14 0 0 0-5.096-2.122 7.14 7.14 0 0 0-5.096 2.122 7.218 7.218 0 0 0-2.111 5.124c0 1.935.75 3.755 2.11 5.123a7.14 7.14 0 0 0 5.097 2.123 7.14 7.14 0 0 0 5.096-2.123 7.205 7.205 0 0 0 2.066-4.318h3.527a10.83 10.83 0 0 1-3.101 6.823 10.631 10.631 0 0 1-7.588 3.16c-2.866 0-5.56-1.122-7.588-3.16a10.746 10.746 0 0 1-3.142-7.628c0-2.882 1.116-5.59 3.142-7.628 3.362-3.38 8.614-4.13 12.771-1.822a.799.799 0 0 0 1.088-.315.807.807 0 0 0-.314-1.094 12.364 12.364 0 0 0-7.605-1.429 12.196 12.196 0 0 0-7.072 3.521 12.35 12.35 0 0 0-3.612 8.767 12.35 12.35 0 0 0 3.612 8.767 12.218 12.218 0 0 0 8.72 3.631c3.294 0 6.39-1.29 8.72-3.631a12.307 12.307 0 0 0 3.48-6.956l2.122 2.134c.15.15.354.235.567.235h.414a15.911 15.911 0 0 1-4.092 7.092zm-8.596-12.79a.798.798 0 0 0-1.094-.295l-1.921 1.116a.806.806 0 0 0 0 1.394l1.921 1.116a.8.8 0 0 0 1.094-.295.807.807 0 0 0 .045-.713h2.888a5.604 5.604 0 0 1-1.584 3.18 5.553 5.553 0 0 1-3.964 1.65 5.554 5.554 0 0 1-3.964-1.65 5.614 5.614 0 0 1-1.641-3.985c0-1.505.583-2.92 1.641-3.985a5.554 5.554 0 0 1 3.964-1.65c1.497 0 2.905.585 3.964 1.65a5.604 5.604 0 0 1 1.584 3.18h-2.888a.807.807 0 0 0-.045-.713zm12.605 4.088l-1.756-1.765h5.59l1.755 1.765h-5.589z"/>
    </g>
</svg>
