<svg xmlns="http://www.w3.org/2000/svg" width="31" height="38" viewBox="0 0 31 38">
    <path fill="#000" fill-rule="nonzero" d="M17.753 0c1.063 0 2.006.663 2.399 1.668l.06.17 3.911 12.346a20.517 20.517 0 0 1 .28 1.26l.108.613 1.59 10.08.57.97 3.698 5.425a.76.76 0 0 1-.1.97l-.09.074-6.256 4.3a.702.702 0 0 1-.917-.101l-.065-.08-3.855-5.446-2.61-3.681a.752.752 0 0 1-.117-.253l-.017-.092-.843-6.887-.841 6.887a.759.759 0 0 1-.084.266l-.05.079-2.61 3.681-3.855 5.446a.713.713 0 0 1-.887.235l-.095-.055-6.256-4.299a.744.744 0 0 1-.309-.48.763.763 0 0 1 .06-.462l.059-.102 3.697-5.425.571-.97 1.59-10.08c.097-.613.223-1.229.376-1.83l.005-.022.007-.021 3.911-12.346C11.136.738 12.125 0 13.247 0c.754 0 1.469.338 1.96.928.113.134.21.279.293.43.083-.151.18-.296.292-.43A2.552 2.552 0 0 1 17.753 0zM5.121 28.526l-2.888 4.237 5.069 3.482 3.001-4.239-5.182-3.48zm20.758 0l-5.182 3.48 3.001 4.24 5.068-3.483-2.887-4.237zM13.247 1.484c-.456 0-.862.275-1.046.697l-.044.118-3.905 12.324c-.092.366-.174.739-.244 1.112l-.097.56-1.613 10.222a.757.757 0 0 1-.052.182l-.043.084-.294.5 5.245 3.523 2.098-2.96 1.515-12.399a1.571 1.571 0 0 0-1.115-1.702l-.108-.026-.107-.018a1.466 1.466 0 0 0-.987.223l-.123.087-.008.007c-.279.224-.469.534-.545.884l-.026.153-.56 4.634a.725.725 0 0 1-.803.645.735.735 0 0 1-.631-.728l.006-.1.071-.596v-.002l.488-4.036a3.045 3.045 0 0 1 1.115-2.025 2.883 2.883 0 0 1 1.54-.63l.21-.012.188-2.487.003-.026.003-.027 1.002-6.822c.05-.341-.046-.686-.264-.948a1.131 1.131 0 0 0-.87-.41zm4.506 0c-.334 0-.65.15-.869.411-.187.224-.284.51-.277.801l.013.146 1.002 6.823.003.026.003.027.188 2.487c.327.006.648.069.951.184.28.106.546.257.79.45l.009.008c.57.457.95 1.1 1.085 1.825l.03.2.487 4.036v.004l.072.594a.738.738 0 0 1-.625.828.722.722 0 0 1-.785-.546l-.019-.1-.559-4.633a1.56 1.56 0 0 0-.571-1.037 1.472 1.472 0 0 0-.966-.329l-.15.012a1.505 1.505 0 0 0-.244.052 1.562 1.562 0 0 0-1.098 1.374l-.004.138v.01l.003.082.007.083 1.519 12.407 2.098 2.959 5.245-3.523-.294-.5a.753.753 0 0 1-.075-.173l-.02-.093-1.613-10.221c-.059-.374-.13-.749-.211-1.12l-.13-.553-3.905-12.324a1.147 1.147 0 0 0-1.09-.815zm3.098 19.727l.115.016a.89.89 0 0 1 .643.528.893.893 0 0 1 .067.337.895.895 0 0 1-.392.736.903.903 0 0 1-.49.149.87.87 0 0 1-.338-.068.88.88 0 0 1-.544-.816.871.871 0 0 1 .148-.491.88.88 0 0 1 .561-.375l.115-.016h.115zm-11.47 0l.115.016a.89.89 0 0 1 .643.528.9.9 0 0 1 .05.51.893.893 0 0 1-.376.563.895.895 0 0 1-.49.149.869.869 0 0 1-.337-.068.91.91 0 0 1-.287-.191.894.894 0 0 1-.11-1.116.887.887 0 0 1 .397-.325.89.89 0 0 1 .165-.05l.115-.016h.115zm17.073-8.685l.088.076 1.964 1.967a.785.785 0 0 1-1.01 1.191l-.096-.083-1.965-1.967a.782.782 0 1 1 1.019-1.184zm-22.878.076a.782.782 0 0 1 1.107 0 .785.785 0 0 1 0 1.108l-1.965 1.967a.78.78 0 0 1-1.106 0 .785.785 0 0 1 0-1.108zM15.5 5.136l-.694 4.725-.203 2.68c.344.182.647.43.895.727.2-.237.434-.444.697-.61l.202-.118-.203-2.68-.694-4.724zm13.323 3.701c.439 0 .795.396.795.884 0 .45-.304.822-.695.877l-.1.007H26c-.44 0-.795-.396-.795-.884 0-.45.303-.822.695-.877l.1-.007h2.822zm-24.706 0c.439 0 .795.396.795.884 0 .45-.303.822-.695.877l-.1.007H1.295c-.44 0-.795-.396-.795-.884 0-.45.303-.822.695-.877l.1-.007h2.822zm24.39-5.956a.785.785 0 0 1 .075 1.02l-.076.088-1.964 1.968a.78.78 0 0 1-1.107 0 .785.785 0 0 1-.076-1.02l.076-.089L27.4 2.881a.782.782 0 0 1 1.106 0zM2.63 2.805l.088.076 1.965 1.967a.785.785 0 0 1-1.01 1.191l-.097-.082-1.964-1.968A.785.785 0 0 1 2.63 2.805z"/>
</svg>
