<svg xmlns="http://www.w3.org/2000/svg" width="1583" height="407" viewBox="0 0 1583 407">
    <g fill="#D8D8D8" fill-rule="evenodd" opacity=".191">
        <path d="M0 37h2V0H0zM87 37h2V0h-2zM175 37h2V0h-2zM57.163 32.577l1.414-1.415L32.414 5 31 6.414zM118 31.163l1.415 1.414 26.163-26.163L144.164 5zM229 37h2V0h-2zM316 37h2V0h-2zM404 37h2V0h-2zM286.163 32.577l1.414-1.415L261.414 5 260 6.414zM347 31.163l1.415 1.414 26.163-26.163L373.164 5zM0 50h2v37H0zM87 50h2v37h-2zM175 50h2v37h-2zM57.163 55l1.414 1.415-26.163 26.163L31 81.164zM118 56.414L119.416 55l26.163 26.163-1.414 1.414zM229 50h2v37h-2zM316 50h2v37h-2zM404 50h2v37h-2zM286.163 55l1.414 1.415-26.163 26.163L260 81.164zM347 56.414L348.416 55l26.163 26.163-1.414 1.414zM0 137h2v-37H0zM87 137h2v-37h-2zM175 137h2v-37h-2zM57.163 132.577l1.414-1.415L32.414 105 31 106.414zM118 131.163l1.415 1.414 26.163-26.163-1.414-1.414zM229 137h2v-37h-2zM316 137h2v-37h-2zM404 137h2v-37h-2zM286.163 132.577l1.414-1.415L261.414 105 260 106.414zM347 131.163l1.415 1.414 26.163-26.163-1.414-1.414zM0 220h2v37H0zM57.163 225l1.414 1.415-26.163 26.163L31 251.164zM0 160h2v37H0zM57.163 165l1.414 1.415-26.163 26.163L31 191.164zM0 307h2v-37H0zM87 307h2v-37h-2zM175 307h2v-37h-2zM57.163 302.577l1.414-1.415L32.414 275 31 276.414zM118 301.163l1.415 1.414 26.163-26.163-1.414-1.414zM229 307h2v-37h-2zM316 307h2v-37h-2zM404 307h2v-37h-2zM286.163 302.577l1.414-1.415L261.414 275 260 276.414zM347 301.163l1.415 1.414 26.163-26.163-1.414-1.414zM0 320h2v37H0zM87 320h2v37h-2zM175 320h2v37h-2zM57.163 325l1.414 1.415-26.163 26.163L31 351.164zM118 326.414l1.415-1.414 26.163 26.163-1.414 1.414zM229 320h2v37h-2zM316 320h2v37h-2zM404 320h2v37h-2zM286.163 325l1.414 1.415-26.163 26.163-1.414-1.414zM347 326.414l1.415-1.414 26.163 26.163-1.414 1.414zM0 407h2v-37H0zM87 407h2v-37h-2zM175 407h2v-37h-2zM57.163 402.577l1.414-1.415L32.414 375 31 376.414zM118 401.163l1.415 1.414 26.163-26.163-1.414-1.414zM229 407h2v-37h-2zM316 407h2v-37h-2zM404 407h2v-37h-2zM286.163 402.577l1.414-1.415L261.414 375 260 376.414zM347 401.163l1.415 1.414 26.163-26.163-1.414-1.414zM495 37h2V0h-2zM583 37h2V0h-2zM465.163 32.577l1.414-1.415L440.414 5 439 6.414zM526 31.163l1.415 1.414 26.163-26.163L552.164 5zM637 37h2V0h-2zM724 37h2V0h-2zM694.163 32.577l1.414-1.415L669.414 5 668 6.414zM495 50h2v37h-2zM583 50h2v37h-2zM465.163 55l1.414 1.415-26.163 26.163L439 81.164zM526 56.414L527.416 55l26.163 26.163-1.414 1.414zM637 50h2v37h-2zM724 50h2v37h-2zM694.163 55l1.414 1.415-26.163 26.163L668 81.164zM755 56.414L756.416 55l26.163 26.163-1.414 1.414zM495 137h2v-37h-2zM583 137h2v-37h-2zM465.163 132.577l1.414-1.415L440.414 105 439 106.414zM526 131.163l1.415 1.414 26.163-26.163-1.414-1.414zM637 137h2v-37h-2zM724 137h2v-37h-2zM694.163 132.577l1.414-1.415L669.414 105 668 106.414zM755 131.163l1.415 1.414 26.163-26.163-1.414-1.414zM583 307h2v-37h-2zM637 307h2v-37h-2zM724 307h2v-37h-2zM694.163 302.577l1.414-1.415L669.414 275 668 276.414zM583 320h2v37h-2zM637 320h2v37h-2zM724 320h2v37h-2zM694.163 325l1.414 1.415-26.163 26.163-1.414-1.414zM583 407h2v-37h-2zM637 407h2v-37h-2zM724 407h2v-37h-2zM694.163 402.577l1.414-1.415L669.414 375 668 376.414zM755 166.414l1.415-1.414 26.163 26.163-1.414 1.414zM495 307h2v-37h-2zM465.163 302.577l1.414-1.415L440.414 275 439 276.414zM526 301.163l1.415 1.414 26.163-26.163-1.414-1.414zM755 301.163l1.415 1.414 26.163-26.163-1.414-1.414zM495 320h2v37h-2zM465.163 325l1.414 1.415-26.163 26.163-1.414-1.414zM526 326.414l1.415-1.414 26.163 26.163-1.414 1.414zM755 326.414l1.415-1.414 26.163 26.163-1.414 1.414zM495 407h2v-37h-2zM465.163 402.577l1.414-1.415L440.414 375 439 376.414zM526 401.163l1.415 1.414 26.163-26.163-1.414-1.414zM755 401.163l1.415 1.414 26.163-26.163-1.414-1.414z"/>
        <g>
            <path d="M800 37h2V0h-2zM887 37h2V0h-2zM975 37h2V0h-2zM857.163 32.577l1.414-1.415L832.414 5 831 6.414zM918 31.163l1.415 1.414 26.163-26.163L944.164 5zM1029 37h2V0h-2zM1116 37h2V0h-2zM1204 37h2V0h-2zM1086.163 32.577l1.414-1.415L1061.414 5 1060 6.414zM1147 31.163l1.415 1.414 26.163-26.163L1173.164 5zM800 50h2v37h-2zM887 50h2v37h-2zM975 50h2v37h-2zM857.163 55l1.414 1.415-26.163 26.163L831 81.164zM918 56.414L919.416 55l26.163 26.163-1.414 1.414zM1029 50h2v37h-2zM1116 50h2v37h-2zM1204 50h2v37h-2zM1086.163 55l1.414 1.415-26.163 26.163-1.414-1.414zM1147 56.414l1.415-1.414 26.163 26.163-1.414 1.414zM800 137h2v-37h-2zM887 137h2v-37h-2zM975 137h2v-37h-2zM857.163 132.577l1.414-1.415L832.414 105 831 106.414zM918 131.163l1.415 1.414 26.163-26.163-1.414-1.414zM1029 137h2v-37h-2zM1116 137h2v-37h-2zM1204 137h2v-37h-2zM1086.163 132.577l1.414-1.415L1061.414 105l-1.414 1.415zM1147 131.163l1.415 1.414 26.163-26.163-1.414-1.414zM800 160h2v37h-2zM857.163 165l1.414 1.415-26.163 26.163-1.414-1.414zM800 307h2v-37h-2zM887 307h2v-37h-2zM975 307h2v-37h-2zM857.163 302.577l1.414-1.415L832.414 275 831 276.414zM918 301.163l1.415 1.414 26.163-26.163-1.414-1.414zM1029 307h2v-37h-2zM1116 307h2v-37h-2zM1204 307h2v-37h-2zM1086.163 302.577l1.414-1.415L1061.414 275l-1.414 1.415zM1147 301.163l1.415 1.414 26.163-26.163-1.414-1.414zM800 320h2v37h-2zM887 320h2v37h-2zM975 320h2v37h-2zM857.163 325l1.414 1.415-26.163 26.163-1.414-1.414zM918 326.414l1.415-1.414 26.163 26.163-1.414 1.414zM1029 320h2v37h-2zM1116 320h2v37h-2zM1204 320h2v37h-2zM1086.163 325l1.414 1.415-26.163 26.163-1.414-1.414zM1147 326.414l1.415-1.414 26.163 26.163-1.414 1.414zM800 407h2v-37h-2zM887 407h2v-37h-2zM975 407h2v-37h-2zM857.163 402.577l1.414-1.415L832.414 375 831 376.414zM918 401.163l1.415 1.414 26.163-26.163-1.414-1.414zM1029 407h2v-37h-2zM1116 407h2v-37h-2zM1204 407h2v-37h-2zM1086.163 402.577l1.414-1.415L1061.414 375l-1.414 1.415zM1147 401.163l1.415 1.414 26.163-26.163-1.414-1.414zM1295 37h2V0h-2zM1383 37h2V0h-2zM1265.163 32.577l1.414-1.415L1240.414 5 1239 6.414zM1326 31.163l1.415 1.414 26.163-26.163L1352.164 5zM1437 37h2V0h-2zM1524 37h2V0h-2zM1494.163 32.577l1.414-1.415L1469.414 5 1468 6.414zM1295 50h2v37h-2zM1383 50h2v37h-2zM1265.163 55l1.414 1.415-26.163 26.163-1.414-1.414zM1326 56.414l1.415-1.414 26.163 26.163-1.414 1.414zM1437 50h2v37h-2zM1524 50h2v37h-2zM1494.163 55l1.414 1.415-26.163 26.163-1.414-1.414zM1555 56.414l1.415-1.414 26.163 26.163-1.414 1.414zM1295 137h2v-37h-2zM1383 137h2v-37h-2zM1265.163 132.577l1.414-1.415L1240.414 105l-1.414 1.415zM1326 131.163l1.415 1.414 26.163-26.163-1.414-1.414zM1437 137h2v-37h-2zM1524 137h2v-37h-2zM1494.163 132.577l1.414-1.415L1469.414 105l-1.414 1.415zM1555 131.163l1.415 1.414 26.163-26.163-1.414-1.414zM1524 220h2v37h-2zM1494.163 225l1.414 1.415-26.163 26.163-1.414-1.414zM1383 307h2v-37h-2zM1437 307h2v-37h-2zM1524 307h2v-37h-2zM1494.163 302.577l1.414-1.415L1469.414 275l-1.414 1.415zM1383 320h2v37h-2zM1437 320h2v37h-2zM1524 320h2v37h-2zM1494.163 325l1.414 1.415-26.163 26.163-1.414-1.414zM1383 407h2v-37h-2zM1437 407h2v-37h-2zM1524 407h2v-37h-2zM1494.163 402.577l1.414-1.415L1469.414 375l-1.414 1.415zM1555 226.414l1.415-1.414 26.163 26.163-1.414 1.414zM1555 166.414l1.415-1.414 26.163 26.163-1.414 1.414zM1295 307h2v-37h-2zM1265.163 302.577l1.414-1.415L1240.414 275l-1.414 1.415zM1326 301.163l1.415 1.414 26.163-26.163-1.414-1.414zM1555 301.163l1.415 1.414 26.163-26.163-1.414-1.414zM1295 320h2v37h-2zM1265.163 325l1.414 1.415-26.163 26.163-1.414-1.414zM1326 326.414l1.415-1.414 26.163 26.163-1.414 1.414zM1555 326.414l1.415-1.414 26.163 26.163-1.414 1.414zM1295 407h2v-37h-2zM1265.163 402.577l1.414-1.415L1240.414 375l-1.414 1.415zM1326 401.163l1.415 1.414 26.163-26.163-1.414-1.414zM1555 401.163l1.415 1.414 26.163-26.163-1.414-1.414z"/>
        </g>
    </g>
</svg>
