<?xml version="1.0" encoding="UTF-8"?>
<svg viewBox="0 0 95 21" version="1.1" xmlns="http://www.w3.org/2000/svg" xmlns:xlink="http://www.w3.org/1999/xlink">
    <!-- Generator: Sketch 57.1 (83088) - https://sketch.com -->
    <title>linch_logo</title>
    <desc>Created with Sketch.</desc>
    <g id="Page-1" stroke="none" stroke-width="1" fill="none" fill-rule="evenodd">
        <g id="1024" transform="translate(-64.000000, -93.000000)">
            <g id="linchpins" transform="translate(63.000000, 44.000000)">
                <g id="Group-36" transform="translate(0.952000, 48.692000)">
                    <g id="Group-37" transform="translate(0.048000, 0.308000)">
                        <g id="linch_logo">
                            <path d="M32.516,4.828 L32.516,17 L30.952,17 L30.952,4.828 L32.516,4.828 Z M36.443,5.797 C36.443,6.10300153 36.3353344,6.36366559 36.12,6.579 C35.9046656,6.79433441 35.6440015,6.902 35.338,6.902 C35.0319985,6.902 34.7713344,6.79433441 34.556,6.579 C34.3406656,6.36366559 34.233,6.10300153 34.233,5.797 C34.233,5.49099847 34.3406656,5.23033441 34.556,5.015 C34.7713344,4.79966559 35.0319985,4.692 35.338,4.692 C35.6440015,4.692 35.9046656,4.79966559 36.12,5.015 C36.3353344,5.23033441 36.443,5.49099847 36.443,5.797 Z M36.12,8.67 L36.12,17 L34.556,17 L34.556,8.67 L36.12,8.67 Z M38.16,8.67 L39.656,8.67 L39.656,9.826 L39.724,9.826 C39.9620012,9.41799796 40.3274975,9.07800136 40.8205,8.806 C41.3135025,8.53399864 41.8263307,8.398 42.359,8.398 C43.3790051,8.398 44.1638306,8.68983041 44.7135,9.2735 C45.2631694,9.85716958 45.538,10.6873279 45.538,11.764 L45.538,17 L43.974,17 L43.974,11.866 C43.9399998,10.5059932 43.25434,9.826 41.917,9.826 C41.2936635,9.826 40.7723354,10.0781641 40.353,10.5825 C39.9336646,11.0868359 39.724,11.6903298 39.724,12.393 L39.724,17 L38.16,17 L38.16,8.67 Z M51.182,17.272 C49.9466605,17.272 48.9210041,16.8526709 48.105,16.014 C47.3003293,15.1526624 46.898,14.0930063 46.898,12.835 C46.898,11.5543269 47.3003293,10.4946709 48.105,9.656 C48.9210041,8.81732914 49.9466605,8.398 51.182,8.398 C52.0320042,8.398 52.7743302,8.61049787 53.409,9.0355 C54.0436698,9.46050212 54.5196651,10.0469963 54.837,10.795 L53.409,11.39 C52.9669978,10.3473281 52.1906722,9.826 51.08,9.826 C50.3659964,9.826 49.7483359,10.1149971 49.227,10.693 C48.7169974,11.2710029 48.462,11.9849957 48.462,12.835 C48.462,13.6850042 48.7169974,14.3989971 49.227,14.977 C49.7483359,15.5550029 50.3659964,15.844 51.08,15.844 C52.2246724,15.844 53.029331,15.3226719 53.494,14.28 L54.888,14.875 C54.5819985,15.6230037 54.1031699,16.2094979 53.4515,16.6345 C52.7998301,17.0595021 52.0433376,17.272 51.182,17.272 Z M56.248,4.828 L57.812,4.828 L57.812,8.67 L57.744,9.826 L57.812,9.826 C58.0500012,9.41799796 58.4154975,9.07800136 58.9085,8.806 C59.4015025,8.53399864 59.9143307,8.398 60.447,8.398 C61.4670051,8.398 62.2518306,8.68983041 62.8015,9.2735 C63.3511694,9.85716958 63.626,10.6873279 63.626,11.764 L63.626,17 L62.062,17 L62.062,12.07 C62.062,10.5739925 61.3990066,9.826 60.073,9.826 C59.4383302,9.826 58.9028355,10.0894974 58.4665,10.6165 C58.0301645,11.1435026 57.812,11.7583298 57.812,12.461 L57.812,17 L56.248,17 L56.248,4.828 Z M69.542,15.844 C70.2900037,15.844 70.9189975,15.5606695 71.429,14.994 C71.9390025,14.4386639 72.194,13.7190044 72.194,12.835 C72.194,11.962329 71.9390025,11.2426695 71.429,10.676 C70.9189975,10.1093305 70.2900037,9.826 69.542,9.826 C68.7826629,9.826 68.1480026,10.1093305 67.638,10.676 C67.1393308,11.2426695 66.89,11.962329 66.89,12.835 C66.89,13.7190044 67.1393308,14.4443305 67.638,15.011 C68.1480026,15.5663361 68.7826629,15.844 69.542,15.844 Z M69.797,17.272 C69.1849969,17.272 68.6268359,17.141668 68.1225,16.881 C67.6181641,16.620332 67.2300014,16.2746688 66.958,15.844 L66.89,15.844 L66.958,17 L66.958,20.672 L65.394,20.672 L65.394,8.67 L66.89,8.67 L66.89,9.826 L66.958,9.826 C67.2300014,9.39533118 67.6181641,9.04966797 68.1225,8.789 C68.6268359,8.52833203 69.1849969,8.398 69.797,8.398 C70.8963388,8.398 71.8256629,8.82866236 72.585,9.69 C73.3670039,10.562671 73.758,11.6109939 73.758,12.835 C73.758,14.0703395 73.3670039,15.1186624 72.585,15.98 C71.8256629,16.8413376 70.8963388,17.272 69.797,17.272 Z M77.209,5.797 C77.209,6.10300153 77.1013344,6.36366559 76.886,6.579 C76.6706656,6.79433441 76.4100015,6.902 76.104,6.902 C75.7979985,6.902 75.5373344,6.79433441 75.322,6.579 C75.1066656,6.36366559 74.999,6.10300153 74.999,5.797 C74.999,5.49099847 75.1066656,5.23033441 75.322,5.015 C75.5373344,4.79966559 75.7979985,4.692 76.104,4.692 C76.4100015,4.692 76.6706656,4.79966559 76.886,5.015 C77.1013344,5.23033441 77.209,5.49099847 77.209,5.797 Z M76.886,8.67 L76.886,17 L75.322,17 L75.322,8.67 L76.886,8.67 Z M78.926,8.67 L80.422,8.67 L80.422,9.826 L80.49,9.826 C80.7280012,9.41799796 81.0934975,9.07800136 81.5865,8.806 C82.0795025,8.53399864 82.5923307,8.398 83.125,8.398 C84.1450051,8.398 84.9298306,8.68983041 85.4795,9.2735 C86.0291694,9.85716958 86.304,10.6873279 86.304,11.764 L86.304,17 L84.74,17 L84.74,11.866 C84.7059998,10.5059932 84.02034,9.826 82.683,9.826 C82.0596635,9.826 81.5383354,10.0781641 81.119,10.5825 C80.6996646,11.0868359 80.49,11.6903298 80.49,12.393 L80.49,17 L78.926,17 L78.926,8.67 Z M94.515,14.688 C94.515,15.413337 94.1976698,16.0253308 93.563,16.524 C92.9283302,17.0226692 92.1293381,17.272 91.166,17.272 C90.3273291,17.272 89.5906698,17.0538355 88.956,16.6175 C88.3213302,16.1811645 87.8680014,15.6060036 87.596,14.892 L88.99,14.297 C89.194001,14.7956692 89.491498,15.1838319 89.8825,15.4615 C90.273502,15.7391681 90.701331,15.878 91.166,15.878 C91.6646692,15.878 92.081165,15.7703344 92.4155,15.555 C92.749835,15.3396656 92.917,15.0846681 92.917,14.79 C92.917,14.2573307 92.5090041,13.8663346 91.693,13.617 L90.265,13.26 C88.6443252,12.851998 87.834,12.0700058 87.834,10.914 C87.834,10.1546629 88.1428302,9.54550229 88.7605,9.0865 C89.3781698,8.6274977 90.1686619,8.398 91.132,8.398 C91.8686704,8.398 92.534497,8.57366491 93.1295,8.925 C93.724503,9.27633509 94.1409988,9.74666372 94.379,10.336 L92.985,10.914 C92.8263325,10.5626649 92.5685018,10.2878343 92.2115,10.0895 C91.8544982,9.89116567 91.4550022,9.792 91.013,9.792 C90.604998,9.792 90.2395016,9.89399898 89.9165,10.098 C89.5934984,10.302001 89.432,10.5513319 89.432,10.846 C89.432,11.3220024 89.8796622,11.661999 90.775,11.866 L92.033,12.189 C93.6876749,12.597002 94.515,13.4299937 94.515,14.688 Z" id="linchpins" fill="#000000" fill-rule="nonzero"></path>
                            <path d="M4,0 L10,0 L10,0 L10,10 L0,10 L0,4 C-2.705415e-16,1.790861 1.790861,4.05812251e-16 4,0 Z" id="Rectangle" fill="#FFB2BA"></path>
                            <path d="M0,10 L10,10 L10,20 L4,20 C1.790861,20 2.705415e-16,18.209139 0,16 L0,10 L0,10 Z" id="Rectangle" fill="#FF021F"></path>
                            <path d="M10,10 L20,10 L20,16 C20,18.209139 18.209139,20 16,20 L10,20 L10,20 L10,10 Z" id="Rectangle" fill="#FFB3BB"></path>
                        </g>
                    </g>
                </g>
            </g>
        </g>
    </g>
</svg>