<svg xmlns="http://www.w3.org/2000/svg" width="33" height="30" viewBox="0 0 33 30">
    <path fill="#333" fill-rule="nonzero" d="M30.503 2.5a8.518 8.518 0 0 0-12.055 0L1.873 19.091a6.404 6.404 0 0 0 0 9.052c2.059 2.061 5.164 2.394 7.59 1.056.254-.012.504-.108.698-.3l16.575-16.594a4.27 4.27 0 0 0 0-6.033 4.258 4.258 0 0 0-6.027 0L7.147 19.85a1.065 1.065 0 1 0 1.507 1.508L22.216 7.781a2.133 2.133 0 0 1 3.013 3.017L9.406 26.638a4.258 4.258 0 0 1-6.026 0 4.27 4.27 0 0 1 0-6.033L19.955 4.008a6.387 6.387 0 0 1 9.042 0 6.404 6.404 0 0 1 0 9.051L13.928 28.144a1.065 1.065 0 1 0 1.507 1.508l15.068-15.084a8.54 8.54 0 0 0 0-12.069z"/>
</svg>
