<svg xmlns="http://www.w3.org/2000/svg" width="15" height="15" viewBox="0 0 15 15">
    <path fill="#F7233C" fill-rule="nonzero" d="M14.691 11.864l-2.316-2.322c-.462-.46-1.226-.446-1.703.032l-1.168 1.17-.23-.129c-.737-.409-1.746-.97-2.807-2.034C5.402 7.514 4.842 6.5 4.433 5.762l-.126-.226.783-.783.385-.387c.479-.48.492-1.245.031-1.707L3.19.337C2.73-.124 1.965-.11 1.487.369l-.653.658.018.018c-.219.28-.402.603-.538.951a3.95 3.95 0 0 0-.24.965c-.305 2.541.854 4.864 3.998 8.016 4.347 4.357 7.85 4.028 8.002 4.011.329-.039.644-.118.965-.243a3.76 3.76 0 0 0 .946-.536l.014.012.661-.649c.477-.48.491-1.245.031-1.708z"/>
</svg>
