<svg xmlns="http://www.w3.org/2000/svg" width="15" height="16" viewBox="0 0 15 16">
    <path fill="#000" fill-rule="nonzero" d="M14.691 12.62l-2.316-2.323c-.462-.46-1.226-.447-1.703.032L9.504 11.5l-.23-.129c-.737-.41-1.746-.97-2.807-2.035-1.065-1.067-1.625-2.08-2.034-2.818l-.126-.226.783-.784.385-.386c.479-.48.492-1.245.031-1.707L3.19 1.092C2.73.63 1.965.644 1.487 1.124l-.653.658.018.018c-.219.28-.402.603-.538.95a3.95 3.95 0 0 0-.24.965C-.23 6.257.929 8.58 4.073 11.732c4.347 4.356 7.85 4.027 8.002 4.011.329-.04.644-.118.965-.243a3.76 3.76 0 0 0 .946-.537l.014.013.661-.65c.477-.478.491-1.244.031-1.707z"/>
</svg>
